HIERARCHY
ROOT Hips
{
	OFFSET 0.000000 0.000000 0.000000
	CHANNELS 6 Xposition Yposition Zposition Zrotation Yrotation Xrotation 
	JOINT LHipJoint
	{
		OFFSET 0.000000 0.000000 0.000000
		CHANNELS 3 Zrotation Yrotation Xrotation
		JOINT LeftUpLeg
		{
			OFFSET 1.363060 -1.794630 0.839290
			CHANNELS 3 Zrotation Yrotation Xrotation
			JOINT LeftLeg
			{
				OFFSET 2.448110 -6.726130 0.000000
				CHANNELS 3 Zrotation Yrotation Xrotation
				JOINT LeftFoot
				{
					OFFSET 2.562200 -7.039590 0.000000
					CHANNELS 3 Zrotation Yrotation Xrotation
					JOINT LeftToeBase
					{
						OFFSET 0.157640 -0.433110 2.322550
						CHANNELS 3 Zrotation Yrotation Xrotation
						End Site
						{
							OFFSET 0.000000 0.000000 0.000000
						}
					}
				}
			}
		}
	}
	JOINT RHipJoint
	{
		OFFSET 0.000000 0.000000 0.000000
		CHANNELS 3 Zrotation Yrotation Xrotation
		JOINT RightUpLeg
		{
			OFFSET -1.305520 -1.794630 0.839290
			CHANNELS 3 Zrotation Yrotation Xrotation
			JOINT RightLeg
			{
				OFFSET -2.542530 -6.985550 0.000000
				CHANNELS 3 Zrotation Yrotation Xrotation
				JOINT RightFoot
				{
					OFFSET -2.568260 -7.056230 0.000000
					CHANNELS 3 Zrotation Yrotation Xrotation
					JOINT RightToeBase
					{
						OFFSET -0.164730 -0.452590 2.363150
						CHANNELS 3 Zrotation Yrotation Xrotation
						End Site
						{
							OFFSET 0.000000 0.000000 0.000000
						}
					}
				}
			}
		}
	}
	JOINT LowerBack
	{
		OFFSET 0.000000 0.000000 0.000000
		CHANNELS 3 Zrotation Yrotation Xrotation
		JOINT Spine
		{
			OFFSET 0.028270 2.035590 -0.193380
			CHANNELS 3 Zrotation Yrotation Xrotation
			JOINT Spine1
			{
				OFFSET 0.056720 2.048850 -0.042750
				CHANNELS 3 Zrotation Yrotation Xrotation
				JOINT Neck
				{
					OFFSET 0.000000 0.000000 0.000000
					CHANNELS 3 Zrotation Yrotation Xrotation
					JOINT Neck1
					{
						OFFSET -0.054170 1.746240 0.172020
						CHANNELS 3 Zrotation Yrotation Xrotation
						JOINT Head
						{
							OFFSET 0.104070 1.761360 -0.123970
							CHANNELS 3 Zrotation Yrotation Xrotation
							End Site
							{
								OFFSET 0.000000 0.000000 0.000000
							}
						}
					}
				}
				JOINT LeftShoulder
				{
					OFFSET 0.000000 0.000000 0.000000
					CHANNELS 3 Zrotation Yrotation Xrotation
					JOINT LeftArm
					{
						OFFSET 3.362410 1.200890 -0.311210
						CHANNELS 3 Zrotation Yrotation Xrotation
						JOINT LeftForeArm
						{
							OFFSET 4.983000 -0.000000 -0.000000
							CHANNELS 3 Zrotation Yrotation Xrotation
							JOINT LeftHand
							{
								OFFSET 3.483560 -0.000000 -0.000000
								CHANNELS 3 Zrotation Yrotation Xrotation
								JOINT LeftFingerBase
								{
									OFFSET 0.000000 0.000000 0.000000
									CHANNELS 3 Zrotation Yrotation Xrotation
									JOINT LeftHandIndex1
									{
										OFFSET 0.715260 -0.000000 -0.000000
										CHANNELS 3 Zrotation Yrotation Xrotation
										End Site
										{
											OFFSET 0.000000 0.000000 0.000000
										}
									}
								}
								JOINT LThumb
								{
									OFFSET 0.000000 0.000000 0.000000
									CHANNELS 3 Zrotation Yrotation Xrotation
									End Site
									{
										OFFSET 0.000000 0.000000 0.000000
									}
								}
							}
						}
					}
				}
				JOINT RightShoulder
				{
					OFFSET 0.000000 0.000000 0.000000
					CHANNELS 3 Zrotation Yrotation Xrotation
					JOINT RightArm
					{
						OFFSET -3.136600 1.374050 -0.404650
						CHANNELS 3 Zrotation Yrotation Xrotation
						JOINT RightForeArm
						{
							OFFSET -5.241900 -0.000000 -0.000000
							CHANNELS 3 Zrotation Yrotation Xrotation
							JOINT RightHand
							{
								OFFSET -3.444170 -0.000000 -0.000000
								CHANNELS 3 Zrotation Yrotation Xrotation
								JOINT RightFingerBase
								{
									OFFSET 0.000000 0.000000 0.000000
									CHANNELS 3 Zrotation Yrotation Xrotation
									JOINT RightHandIndex1
									{
										OFFSET -0.622530 -0.000000 -0.000000
										CHANNELS 3 Zrotation Yrotation Xrotation
										End Site
										{
											OFFSET 0.000000 0.000000 0.000000
										}
									}
								}
								JOINT RThumb
								{
									OFFSET 0.000000 0.000000 0.000000
									CHANNELS 3 Zrotation Yrotation Xrotation
									End Site
									{
										OFFSET 0.000000 0.000000 0.000000
									}
								}
							}
						}
					}
				}
			}
		}
	}
}
MOTION
Frames: 10
Frame Time: 0.008333
-1.780430 16.297375 0.387807 -158.067294 73.089050 -144.020564 -10.461112 -1.635589 -3.271281 -18.218989 5.655741 -42.696274 -1.800114 1.961385 43.321156 3.116087 12.514987 -22.754677 176.526400 -0.000001 -5.338800 10.555276 -0.989807 -7.120424 -1.926611 -21.952948 -22.082312 -0.325980 -5.050882 63.216195 -1.578772 0.914691 30.260436 1.343800 0.000001 -71.237400 -4.169541 0.547765 13.084588 -2.178767 0.687841 -0.123631 -7.282767 0.738599 0.683276 7.472869 2.276467 5.321635 -3.933051 -0.386437 2.869558 0.000000 0.000000 0.000000 -5.211738 0.722568 1.596693 -60.169131 12.593903 17.950817 -3.501313 -16.550166 -0.010930 -2.691369 5.794010 -0.135531 -0.060843 -0.092648 -0.000000 0.000000 0.000000 0.000000 0.000000 0.000000 0.000000 13.008839 2.285835 -2.806333 74.450658 32.469867 27.149222 1.372684 56.148264 0.001023 -1.104447 12.321271 -0.124126 0.024802 -0.276184 -0.000000 0.000000 0.000000 0.000000 0.000000 0.000000 0.000000 
-1.667585 16.287518 0.317296 -158.665457 72.820052 -144.972451 -10.476855 -1.617287 -3.375137 -18.298716 5.575220 -41.671231 -1.782326 1.943168 43.684873 3.223563 12.927795 -23.704317 176.167600 0.000000 -4.812300 10.581702 -0.894204 -7.092563 -2.291215 -21.495580 -22.444840 -0.441930 -5.143438 64.498944 -1.713899 -0.603313 30.140998 0.478800 -0.000000 -68.839399 -4.175373 0.649165 13.186270 -2.187766 0.796508 -0.061294 -7.283554 0.850049 0.806951 6.945355 2.518043 5.519707 -4.031109 -0.391415 2.897538 0.000000 0.000000 0.000000 -5.656995 1.026066 1.530354 -59.724633 10.316754 16.641710 -3.524688 -15.468126 -0.009324 -1.759693 5.878099 -0.088583 -0.062988 -0.082104 -0.000000 0.000000 0.000000 0.000000 0.000000 0.000000 0.000000 12.791033 2.357317 -2.879118 74.451401 32.129935 26.111869 1.430319 54.418598 0.001151 -1.121374 12.403384 -0.126744 0.024690 -0.263972 -0.000000 0.000000 0.000000 0.000000 0.000000 0.000000 0.000000 
-1.555983 16.284424 0.242670 -159.032581 72.538841 -145.639023 -10.503417 -1.601816 -3.454406 -18.321901 5.498579 -40.646051 -1.763192 1.910823 43.837006 3.319163 13.320747 -24.455292 175.856000 0.000001 -4.375200 10.591521 -0.827225 -7.020446 -2.486845 -20.854247 -22.880348 -0.556437 -5.221672 65.616911 -1.818913 -1.938969 29.696639 -0.279700 -0.000000 -66.921600 -4.099656 0.766106 13.209646 -2.179436 0.923180 -0.013340 -7.286378 0.978432 0.942732 6.417584 2.762349 5.681777 -4.129347 -0.396001 2.917347 0.000000 0.000000 0.000000 -6.130721 1.409525 1.453406 -59.359138 7.843274 14.901777 -3.524130 -14.339124 -0.007041 -0.358442 5.801477 -0.015329 -0.062809 -0.069907 -0.000000 0.000000 0.000000 0.000000 0.000000 0.000000 0.000000 12.574481 2.436005 -2.932710 74.387897 31.740951 25.011867 1.495572 52.593215 0.001475 -1.098804 12.415726 -0.124261 0.024694 -0.250729 -0.000000 0.000000 0.000000 0.000000 0.000000 0.000000 0.000000 
-1.445577 16.287438 0.164944 -159.223312 72.241224 -146.077270 -10.539467 -1.587854 -3.511058 -18.295880 5.418566 -39.645076 -1.740498 1.870440 43.838157 3.397233 13.673056 -24.997123 175.604900 -0.000000 -4.086799 10.587611 -0.785931 -6.908479 -2.534788 -20.051420 -23.376403 -0.668930 -5.284866 66.567303 -1.892276 -3.053139 28.941629 -0.895300 -0.000000 -65.460200 -3.961325 0.892512 13.162808 -2.157617 1.061207 0.019838 -7.293445 1.117224 1.084030 5.911131 3.004337 5.801979 -4.223720 -0.400004 2.928253 0.000000 0.000000 0.000000 -6.619769 1.857348 1.366939 -59.067171 5.239909 12.822995 -3.496247 -13.272391 -0.004399 1.454525 5.495777 0.073327 -0.059492 -0.057199 -0.000000 0.000000 0.000000 0.000000 0.000000 0.000000 0.000000 12.371805 2.520001 -2.963854 74.262566 31.310314 23.868254 1.568588 50.687275 0.001964 -1.036197 12.361977 -0.116678 0.024853 -0.236774 -0.000000 0.000000 0.000000 0.000000 0.000000 0.000000 0.000000 
-1.336301 16.295961 0.085329 -159.310661 71.919974 -146.363932 -10.582926 -1.573189 -3.547359 -18.234683 5.328999 -38.684940 -1.713691 1.826914 43.740892 3.454023 13.966650 -25.336225 175.422300 -0.000000 -3.966799 10.572764 -0.765663 -6.761881 -2.466476 -19.117238 -23.916000 -0.777069 -5.332809 67.346247 -1.934531 -3.933498 27.905088 -1.353600 0.000000 -64.373200 -3.782786 1.021872 13.055478 -2.126667 1.203186 0.035286 -7.305961 1.258827 1.213629 5.445189 3.251648 5.889662 -4.309871 -0.403391 2.933816 0.000000 0.000000 0.000000 -7.108227 2.291503 1.276300 -58.849811 2.654545 10.472391 -3.442899 -12.417166 -0.001765 3.558203 4.912740 0.156375 -0.052875 -0.045504 -0.000000 0.000000 0.000000 0.000000 0.000000 0.000000 0.000000 12.189504 2.619873 -2.965760 74.079004 30.824055 22.677797 1.649165 48.721021 0.002598 -0.928310 12.245821 -0.103694 0.025105 -0.222525 -0.000000 0.000000 0.000000 0.000000 0.000000 0.000000 0.000000 
-1.228161 16.309501 0.005034 -159.373536 71.565277 -146.580527 -10.631250 -1.556027 -3.566825 -18.155487 5.224415 -37.775166 -1.683619 1.783855 43.587151 3.487802 14.187274 -25.493427 175.309600 0.000001 -3.996600 10.549165 -0.760456 -6.587715 -2.317073 -18.086683 -24.480622 -0.877002 -5.365938 67.949031 -1.948518 -4.594000 26.633391 -1.663100 -0.000000 -63.576300 -3.587956 1.146503 12.902223 -2.091186 1.340529 0.036491 -7.323002 1.395116 1.332806 5.034922 3.489671 5.937212 -4.385417 -0.405999 2.932286 0.000000 0.000000 0.000000 -7.571212 2.718694 1.184139 -58.713128 0.112658 8.045441 -3.369483 -11.854226 0.000551 5.782566 4.042543 0.207612 -0.043714 -0.035916 -0.000000 0.000000 0.000000 0.000000 0.000000 0.000000 0.000000 12.039952 2.721215 -2.940337 73.846797 30.305013 21.472051 1.737475 46.701740 0.003341 -0.781316 12.079156 -0.086410 0.025572 -0.208184 -0.000000 0.000000 0.000000 0.000000 0.000000 0.000000 0.000000 
-1.121176 16.327671 -0.074868 -159.485891 71.165595 -146.805468 -10.681764 -1.534073 -3.571986 -18.075936 5.101379 -36.916597 -1.652096 1.743279 43.404774 3.498558 14.325006 -25.498264 175.263400 0.000000 -4.130501 10.518679 -0.764401 -6.392812 -2.121734 -16.998393 -25.051871 -0.964348 -5.384833 68.371726 -1.939218 -5.070514 25.184594 -1.849000 0.000000 -62.932900 -3.397430 1.259213 12.715597 -2.054829 1.465284 0.022422 -7.342598 1.517994 1.427517 4.690562 3.727247 5.958149 -4.447402 -0.407858 2.927873 0.000000 0.000000 0.000000 -7.985141 3.065127 1.097810 -58.672313 -2.258388 5.662043 -3.285579 -11.690804 0.002385 7.941277 2.933645 0.206636 -0.033460 -0.029176 -0.000000 0.000000 0.000000 0.000000 0.000000 0.000000 0.000000 11.923207 2.833703 -2.883910 73.573837 29.738607 20.241644 1.833020 44.648131 0.004167 -0.589197 11.867857 -0.064624 0.026171 -0.194073 -0.000000 0.000000 0.000000 0.000000 0.000000 0.000000 0.000000 
-1.015359 16.350201 -0.153622 -159.703065 70.709128 -147.096857 -10.732113 -1.506154 -3.565835 -18.009780 4.958415 -36.104640 -1.621447 1.705853 43.207507 3.487592 14.374393 -25.384275 175.275900 -0.000000 -4.309700 10.482241 -0.771606 -6.184834 -1.909072 -15.890239 -25.614872 -1.034732 -5.390066 68.610452 -1.913917 -5.416665 23.631963 -1.948700 -0.000001 -62.360300 -3.227014 1.352863 12.510157 -2.020622 1.569912 -0.001045 -7.363014 1.620501 1.506179 4.417058 3.941989 5.943421 -4.495806 -0.408863 2.917837 0.000000 0.000000 0.000000 -8.333647 3.359647 1.018427 -58.736845 -4.486465 3.528993 -3.201584 -11.929201 0.003661 9.868944 1.683342 0.147952 -0.024101 -0.024920 -0.000000 0.000000 0.000000 0.000000 0.000000 0.000000 0.000000 11.848935 2.932795 -2.802073 73.270888 29.159919 19.027576 1.936131 42.557591 0.005052 -0.364247 11.628553 -0.040037 0.027101 -0.180267 -0.000000 0.000000 0.000000 0.000000 0.000000 0.000000 0.000000 
-0.910774 16.376908 -0.230795 -160.057539 70.184968 -147.492794 -10.780805 -1.470614 -3.549076 -17.965510 4.795581 -35.328511 -1.593983 1.671123 42.995968 3.456896 14.334064 -25.182973 175.337999 -0.000000 -4.472700 10.440310 -0.777353 -5.970062 -1.700976 -14.798146 -26.157257 -1.085318 -5.381867 68.666006 -1.880903 -5.692494 22.046196 -2.000700 -0.000000 -61.698800 -3.082881 1.422081 12.294386 -1.989164 1.648823 -0.036726 -7.381352 1.696534 1.550306 4.213188 4.160673 5.918249 -4.528447 -0.409159 2.909314 0.000000 0.000000 0.000000 -8.603282 3.509480 0.954581 -58.914032 -6.435082 1.738673 -3.124899 -12.635418 0.004427 11.446988 0.428637 0.045359 -0.017294 -0.022376 -0.000000 0.000000 0.000000 0.000000 0.000000 0.000000 0.000000 11.802723 3.046697 -2.690693 72.945443 28.528661 17.781548 2.045907 40.459860 0.005975 -0.086522 11.355969 -0.011149 0.028105 -0.167037 -0.000000 0.000000 0.000000 0.000000 0.000000 0.000000 0.000000 
-0.807494 16.407575 -0.306335 -160.553222 69.583423 -148.000164 -10.827425 -1.427193 -3.522569 -17.943787 4.613889 -34.575831 -1.571623 1.638011 42.761186 3.408598 14.205640 -24.919986 175.440500 -0.000000 -4.563200 10.392238 -0.777548 -5.755031 -1.507316 -13.752362 -26.671955 -1.114508 -5.360046 68.539236 -1.849285 -5.960162 20.501310 -2.041400 0.000000 -60.908500 -2.963682 1.462347 12.077410 -1.960219 1.697531 -0.079877 -7.396930 1.741974 1.567953 4.072713 4.369434 5.878965 -4.546692 -0.408732 2.900741 0.000000 0.000000 0.000000 -8.797520 3.542872 0.906093 -59.192057 -8.148778 0.438932 -3.060557 -13.759972 0.004676 12.617360 -0.696020 -0.074732 -0.014368 -0.020001 -0.000000 0.000000 0.000000 0.000000 0.000000 0.000000 0.000000 11.784053 3.159863 -2.555746 72.607513 27.867150 16.522869 2.162812 38.355570 0.006921 0.237621 11.059402 0.020840 0.029322 -0.154388 -0.000000 0.000000 0.000000 0.000000 0.000000 0.000000 0.000000 
